<?xml version="1.0" encoding="UTF-8"?>
<!DOCTYPE svg PUBLIC "-//W3C//DTD SVG 1.1//EN" "http://www.w3.org/Graphics/SVG/1.1/DTD/svg11.dtd">
<svg xmlns="http://www.w3.org/2000/svg" version="1.1" width="200px" height="200px" style="shape-rendering:geometricPrecision; text-rendering:geometricPrecision; image-rendering:optimizeQuality; fill-rule:evenodd; clip-rule:evenodd" xmlns:xlink="http://www.w3.org/1999/xlink">
<g><path style="opacity:1" fill="#020101" d="M -0.5,-0.5 C 66.1667,-0.5 132.833,-0.5 199.5,-0.5C 199.5,36.8333 199.5,74.1667 199.5,111.5C 198.842,110.602 198.176,109.602 197.5,108.5C 195.814,109.857 194.148,111.19 192.5,112.5C 191.929,110.64 191.929,108.973 192.5,107.5C 188.273,105.72 183.606,104.886 178.5,105C 176.624,104.082 175.624,102.582 175.5,100.5C 179.042,100.813 182.375,100.479 185.5,99.5C 187.903,99.607 189.736,98.607 191,96.5C 192.939,91.4729 192.939,86.4729 191,81.5C 189.22,80.3606 187.386,79.3606 185.5,78.5C 181.316,77.8336 176.982,77.1669 172.5,76.5C 173.506,75.6043 173.506,74.9377 172.5,74.5C 171.572,76.3348 170.406,76.6682 169,75.5C 168.487,76.5266 167.987,77.5266 167.5,78.5C 166.5,78.5 165.5,78.5 164.5,78.5C 163.833,82.8333 163.167,87.1667 162.5,91.5C 160.612,87.3944 158.446,83.3944 156,79.5C 154.301,78.5939 152.467,78.2606 150.5,78.5C 149.835,81.9841 149.501,85.6508 149.5,89.5C 149.511,93.5652 150.178,97.2319 151.5,100.5C 151.579,103.271 151.079,105.937 150,108.5C 149.768,107.263 149.268,106.263 148.5,105.5C 146.901,105.232 145.568,105.566 144.5,106.5C 143.549,107.919 143.216,109.585 143.5,111.5C 142.262,110.588 140.928,110.421 139.5,111C 140.167,111.333 140.833,111.667 141.5,112C 140.833,113.333 140.167,114.667 139.5,116C 136.802,115.469 134.135,115.969 131.5,117.5C 130.304,117.154 130.304,116.654 131.5,116C 128.558,115.856 126.224,114.689 124.5,112.5C 123.5,112.5 122.5,112.5 121.5,112.5C 119.661,114.12 117.661,114.454 115.5,113.5C 109.201,115.696 102.701,117.03 96,117.5C 92.968,114.717 89.8013,114.384 86.5,116.5C 85.8182,115.757 85.1515,115.091 84.5,114.5C 84.5,112.167 84.5,109.833 84.5,107.5C 82.0516,107.01 80.385,107.843 79.5,110C 80.0933,111.882 81.4267,112.882 83.5,113C 79.551,113.807 79.551,114.307 83.5,114.5C 82.1516,115.186 80.985,116.186 80,117.5C 79.3632,115.697 78.1965,114.364 76.5,113.5C 74.6318,113.946 72.7985,114.279 71,114.5C 70.2599,113.251 70.4265,112.251 71.5,111.5C 71.56,112.043 71.8933,112.376 72.5,112.5C 73.8333,108.5 75.1667,108.5 76.5,112.5C 78.0522,108.072 76.3855,106.405 71.5,107.5C 71.5,108.5 71.5,109.5 71.5,110.5C 69.8333,110.5 68.1667,110.5 66.5,110.5C 66.9175,109.778 67.5842,109.278 68.5,109C 67.8333,108.667 67.1667,108.333 66.5,108C 67.624,107.751 68.624,107.251 69.5,106.5C 67.9547,105.548 66.288,105.215 64.5,105.5C 64.5,107.833 64.5,110.167 64.5,112.5C 62.5786,111.637 60.5786,110.971 58.5,110.5C 58.5,109.833 58.5,109.167 58.5,108.5C 58.5086,106.692 58.0086,105.025 57,103.5C 53.2145,104.408 49.8811,106.075 47,108.5C 46.7933,104.906 47.2933,101.406 48.5,98C 47.2805,96.2053 46.2805,96.3719 45.5,98.5C 41.2228,94.7608 41.0561,91.0942 45,87.5C 46.1574,83.6542 44.9907,80.8208 41.5,79C 36.5111,78.5007 31.5111,78.3341 26.5,78.5C 25.8333,78.5 25.1667,78.5 24.5,78.5C 18.1667,78.5 11.8333,78.5 5.5,78.5C 5.5,79.8333 5.5,81.1667 5.5,82.5C 7.83333,82.5 10.1667,82.5 12.5,82.5C 12.5,86.8333 12.5,91.1667 12.5,95.5C 11.5041,95.4142 10.6708,95.7476 10,96.5C 9.91269,99.7067 9.74602,102.707 9.5,105.5C 4.71136,106.38 4.37803,108.214 8.5,111C 4.77406,112.043 5.1074,112.543 9.5,112.5C 8.73747,113.268 7.73747,113.768 6.5,114C 8.92884,114.451 9.09551,115.285 7,116.5C 5.32963,116.656 3.66297,115.99 2,114.5C 1.09789,114.743 0.264561,115.077 -0.5,115.5C -0.5,76.8333 -0.5,38.1667 -0.5,-0.5 Z"/></g>
<g><path style="opacity:1" fill="#0f0a08" d="M 185.5,78.5 C 181.5,78.5 177.5,78.5 173.5,78.5C 172.508,85.6476 172.175,92.9809 172.5,100.5C 173.5,100.5 174.5,100.5 175.5,100.5C 175.624,102.582 176.624,104.082 178.5,105C 183.606,104.886 188.273,105.72 192.5,107.5C 189.269,108.098 188.936,109.264 191.5,111C 189.068,112.087 189.402,112.587 192.5,112.5C 192.196,113.15 191.863,113.817 191.5,114.5C 188.839,115.499 186.172,116.499 183.5,117.5C 179.712,116.31 176.045,114.977 172.5,113.5C 171.306,116.018 170.14,116.018 169,113.5C 167.783,115.612 166.617,115.279 165.5,112.5C 164.836,113.648 164.669,114.981 165,116.5C 164.667,116.167 164.333,115.833 164,115.5C 162.915,116.293 161.748,116.96 160.5,117.5C 155.755,116.764 150.922,115.431 146,113.5C 144.624,113.316 143.791,112.649 143.5,111.5C 143.216,109.585 143.549,107.919 144.5,106.5C 144.297,108.39 144.963,109.89 146.5,111C 145.833,111.333 145.167,111.667 144.5,112C 145.793,112.49 147.127,112.657 148.5,112.5C 148.703,110.61 148.037,109.11 146.5,108C 147.756,107.583 148.423,106.75 148.5,105.5C 149.268,106.263 149.768,107.263 150,108.5C 151.079,105.937 151.579,103.271 151.5,100.5C 152.5,100.5 153.5,100.5 154.5,100.5C 154.179,95.3054 154.513,90.3054 155.5,85.5C 157.554,89.9386 159.887,94.272 162.5,98.5C 164.396,99.4656 166.396,99.7989 168.5,99.5C 168.825,92.3134 168.491,85.3134 167.5,78.5C 167.987,77.5266 168.487,76.5266 169,75.5C 170.406,76.6682 171.572,76.3348 172.5,74.5C 173.506,74.9377 173.506,75.6043 172.5,76.5C 176.982,77.1669 181.316,77.8336 185.5,78.5 Z"/></g>
<g><path style="opacity:1" fill="#eaeae9" d="M 24.5,78.5 C 24.5,79.8333 24.5,81.1667 24.5,82.5C 22.1667,82.5 19.8333,82.5 17.5,82.5C 17.5,88.5 17.5,94.5 17.5,100.5C 15.8333,100.5 14.1667,100.5 12.5,100.5C 12.5,98.8333 12.5,97.1667 12.5,95.5C 12.5,91.1667 12.5,86.8333 12.5,82.5C 10.1667,82.5 7.83333,82.5 5.5,82.5C 5.5,81.1667 5.5,79.8333 5.5,78.5C 11.8333,78.5 18.1667,78.5 24.5,78.5 Z"/></g>
<g><path style="opacity:1" fill="#e4e5e4" d="M 26.5,78.5 C 31.5111,78.3341 36.5111,78.5007 41.5,79C 44.9907,80.8208 46.1574,83.6542 45,87.5C 41.0561,91.0942 41.2228,94.7608 45.5,98.5C 44.0536,99.6129 42.3869,99.7796 40.5,99C 39.1667,96.6667 37.8333,94.3333 36.5,92C 34.8659,91.5065 33.1992,91.3398 31.5,91.5C 31.5,94.1667 31.5,96.8333 31.5,99.5C 29.8333,99.5 28.1667,99.5 26.5,99.5C 26.5,92.5 26.5,85.5 26.5,78.5 Z"/></g>
<g><path style="opacity:1" fill="#181818" d="M 77.5,78.5 C 81.3989,77.2092 85.3989,77.2092 89.5,78.5C 91.5729,82.3077 93.9062,85.9744 96.5,89.5C 94.3884,92.75 92.0551,95.75 89.5,98.5C 88.8333,97.8333 88.1667,97.1667 87.5,96.5C 84.4816,96.6646 81.4816,96.498 78.5,96C 76.3291,94.8261 75.3291,92.9928 75.5,90.5C 79.5,90.5 83.5,90.5 87.5,90.5C 87.5,89.5 87.5,88.5 87.5,87.5C 83.5,87.5 79.5,87.5 75.5,87.5C 75.2965,85.6096 75.9632,84.1096 77.5,83C 80.8168,82.5017 84.1501,82.335 87.5,82.5C 87.5,81.1667 87.5,79.8333 87.5,78.5C 84.1667,78.5 80.8333,78.5 77.5,78.5 Z"/></g>
<g><path style="opacity:1" fill="#f4f4f4" d="M 150.5,78.5 C 152.467,78.2606 154.301,78.5939 156,79.5C 158.446,83.3944 160.612,87.3944 162.5,91.5C 162.783,92.2891 163.283,92.9558 164,93.5C 164.499,88.5111 164.666,83.5111 164.5,78.5C 165.5,78.5 166.5,78.5 167.5,78.5C 168.491,85.3134 168.825,92.3134 168.5,99.5C 166.396,99.7989 164.396,99.4656 162.5,98.5C 159.887,94.272 157.554,89.9386 155.5,85.5C 155.44,84.9569 155.107,84.6236 154.5,84.5C 153.506,89.456 153.173,94.456 153.5,99.5C 152.5,99.5 151.5,99.5 150.5,99.5C 150.5,92.5 150.5,85.5 150.5,78.5 Z"/></g>
<g><path style="opacity:1" fill="#858584" d="M 173.5,78.5 C 173.5,85.5 173.5,92.5 173.5,99.5C 177.5,99.5 181.5,99.5 185.5,99.5C 182.375,100.479 179.042,100.813 175.5,100.5C 174.5,100.5 173.5,100.5 172.5,100.5C 172.175,92.9809 172.508,85.6476 173.5,78.5 Z"/></g>
<g><path style="opacity:1" fill="#ededec" d="M 89.5,78.5 C 91.1992,78.3398 92.8659,78.5065 94.5,79C 95.8804,80.9252 97.3804,82.7585 99,84.5C 100.62,82.7585 102.12,80.9252 103.5,79C 111.493,78.5003 119.493,78.3336 127.5,78.5C 127.5,79.8333 127.5,81.1667 127.5,82.5C 125.167,82.5 122.833,82.5 120.5,82.5C 119.511,87.9753 119.178,93.642 119.5,99.5C 118.167,99.5 116.833,99.5 115.5,99.5C 115.5,93.8333 115.5,88.1667 115.5,82.5C 113.167,82.5 110.833,82.5 108.5,82.5C 108.649,81.448 108.483,80.448 108,79.5C 105.649,82.2045 103.816,85.2045 102.5,88.5C 104.456,92.0751 106.122,95.7417 107.5,99.5C 106.127,99.6567 104.793,99.49 103.5,99C 102.12,97.0748 100.62,95.2415 99,93.5C 97.2359,95.3893 95.7359,97.3893 94.5,99.5C 92.5853,99.7845 90.9187,99.4511 89.5,98.5C 92.0551,95.75 94.3884,92.75 96.5,89.5C 93.9062,85.9744 91.5729,82.3077 89.5,78.5 Z"/></g>
<g><path style="opacity:1" fill="#0f0b09" d="M 24.5,78.5 C 25.1667,78.5 25.8333,78.5 26.5,78.5C 26.5,85.5 26.5,92.5 26.5,99.5C 28.1667,99.5 29.8333,99.5 31.5,99.5C 31.5,96.8333 31.5,94.1667 31.5,91.5C 33.1992,91.3398 34.8659,91.5065 36.5,92C 37.8333,94.3333 39.1667,96.6667 40.5,99C 42.3869,99.7796 44.0536,99.6129 45.5,98.5C 46.2805,96.3719 47.2805,96.2053 48.5,98C 47.2933,101.406 46.7933,104.906 47,108.5C 49.8811,106.075 53.2145,104.408 57,103.5C 58.0086,105.025 58.5086,106.692 58.5,108.5C 56.9582,107.699 55.2915,107.366 53.5,107.5C 52.7366,111.138 54.0699,112.638 57.5,112C 55.0684,110.913 55.4017,110.413 58.5,110.5C 60.5786,110.971 62.5786,111.637 64.5,112.5C 66.1667,112.5 67.8333,112.5 69.5,112.5C 67.1047,113.814 64.6047,113.814 62,112.5C 61.0853,113.328 60.4186,114.328 60,115.5C 57.9567,113.033 55.7901,113.033 53.5,115.5C 52.8333,114.167 52.1667,112.833 51.5,111.5C 49.5184,112.623 47.5184,112.623 45.5,111.5C 45.8238,108.32 44.4904,107.153 41.5,108C 42.1667,108.333 42.8333,108.667 43.5,109C 42.09,109.368 41.09,110.201 40.5,111.5C 42.0453,112.452 43.712,112.785 45.5,112.5C 44.7375,113.268 43.7375,113.768 42.5,114C 44.5951,114.556 44.7618,115.056 43,115.5C 41.7651,114.385 40.5984,114.385 39.5,115.5C 38.1804,113.73 36.6804,113.397 35,114.5C 33.108,113.87 31.4413,112.87 30,111.5C 29.6174,112.056 29.1174,112.389 28.5,112.5C 26.1848,113.968 23.8514,114.968 21.5,115.5C 18.8061,114.246 16.1394,113.246 13.5,112.5C 12.1667,112.5 10.8333,112.5 9.5,112.5C 10.9516,110.226 10.285,108.726 7.5,108C 8.75598,107.583 9.42265,106.75 9.5,105.5C 9.74602,102.707 9.91269,99.7067 10,96.5C 10.6708,95.7476 11.5041,95.4142 12.5,95.5C 12.5,97.1667 12.5,98.8333 12.5,100.5C 14.1667,100.5 15.8333,100.5 17.5,100.5C 17.5,94.5 17.5,88.5 17.5,82.5C 19.8333,82.5 22.1667,82.5 24.5,82.5C 24.5,81.1667 24.5,79.8333 24.5,78.5 Z"/></g>
<g><path style="opacity:1" fill="#060606" d="M 31.5,82.5 C 34.1873,82.3359 36.854,82.5026 39.5,83C 40.8333,84.3333 40.8333,85.6667 39.5,87C 36.854,87.4974 34.1873,87.6641 31.5,87.5C 31.5,85.8333 31.5,84.1667 31.5,82.5 Z"/></g>
<g><path style="opacity:1" fill="#eeeeee" d="M 173.5,78.5 C 177.5,78.5 181.5,78.5 185.5,78.5C 187.386,79.3606 189.22,80.3606 191,81.5C 192.939,86.4729 192.939,91.4729 191,96.5C 189.736,98.607 187.903,99.607 185.5,99.5C 181.5,99.5 177.5,99.5 173.5,99.5C 173.5,92.5 173.5,85.5 173.5,78.5 Z"/></g>
<g><path style="opacity:1" fill="#0c0c0c" d="M 177.5,82.5 C 180.187,82.3359 182.854,82.5026 185.5,83C 187.045,84.8219 187.712,86.9886 187.5,89.5C 187.712,92.0114 187.045,94.1781 185.5,96C 182.854,96.4974 180.187,96.6641 177.5,96.5C 177.5,91.8333 177.5,87.1667 177.5,82.5 Z"/></g>
<g><path style="opacity:1" fill="#f2f2f2" d="M 77.5,78.5 C 80.8333,78.5 84.1667,78.5 87.5,78.5C 87.5,79.8333 87.5,81.1667 87.5,82.5C 84.1501,82.335 80.8168,82.5017 77.5,83C 75.9632,84.1096 75.2965,85.6096 75.5,87.5C 79.5,87.5 83.5,87.5 87.5,87.5C 87.5,88.5 87.5,89.5 87.5,90.5C 83.5,90.5 79.5,90.5 75.5,90.5C 75.3291,92.9928 76.3291,94.8261 78.5,96C 81.4816,96.498 84.4816,96.6646 87.5,96.5C 87.5,97.5 87.5,98.5 87.5,99.5C 84.1667,99.5 80.8333,99.5 77.5,99.5C 72.0768,97.9873 69.7434,94.3206 70.5,88.5C 70.3899,83.3679 72.7233,80.0346 77.5,78.5 Z"/></g>
<g><path style="opacity:1" fill="#6b6b6b" d="M 164.5,78.5 C 164.666,83.5111 164.499,88.5111 164,93.5C 163.283,92.9558 162.783,92.2891 162.5,91.5C 163.167,87.1667 163.833,82.8333 164.5,78.5 Z"/></g>
<g><path style="opacity:1" fill="#a2a2a3" d="M 120.5,82.5 C 120.5,88.5 120.5,94.5 120.5,100.5C 118.585,100.784 116.919,100.451 115.5,99.5C 116.833,99.5 118.167,99.5 119.5,99.5C 119.178,93.642 119.511,87.9753 120.5,82.5 Z"/></g>
<g><path style="opacity:1" fill="#f1f1f1" d="M 145.5,96.5 C 145.5,97.5 145.5,98.5 145.5,99.5C 142.167,99.5 138.833,99.5 135.5,99.5C 133.097,99.607 131.264,98.607 130,96.5C 125.611,81.6525 131.111,75.6525 146.5,78.5C 146.5,79.8333 146.5,81.1667 146.5,82.5C 142.818,82.3347 139.152,82.5014 135.5,83C 133.963,84.1096 133.297,85.6096 133.5,87.5C 137.5,87.5 141.5,87.5 145.5,87.5C 145.5,88.5 145.5,89.5 145.5,90.5C 141.5,90.5 137.5,90.5 133.5,90.5C 133.472,92.5824 134.139,94.4157 135.5,96C 138.817,96.4983 142.15,96.665 145.5,96.5 Z"/></g>
<g><path style="opacity:1" fill="#bdbdbd" d="M 150.5,78.5 C 150.5,85.5 150.5,92.5 150.5,99.5C 151.5,99.5 152.5,99.5 153.5,99.5C 153.173,94.456 153.506,89.456 154.5,84.5C 155.107,84.6236 155.44,84.9569 155.5,85.5C 154.513,90.3054 154.179,95.3054 154.5,100.5C 153.5,100.5 152.5,100.5 151.5,100.5C 150.178,97.2319 149.511,93.5652 149.5,89.5C 149.501,85.6508 149.835,81.9841 150.5,78.5 Z"/></g>
<g><path style="opacity:1" fill="#e0dfdf" d="M 48.5,78.5 C 50.1667,78.5 51.8333,78.5 53.5,78.5C 53.3339,84.1764 53.5006,89.8431 54,95.5C 56.4665,96.7883 58.9665,96.7883 61.5,95.5C 62.4954,89.8722 62.8288,84.2055 62.5,78.5C 64.1667,78.5 65.8333,78.5 67.5,78.5C 67.6661,84.1764 67.4994,89.8431 67,95.5C 62.8692,100.623 57.7025,101.79 51.5,99C 50.2986,98.0975 49.4652,96.9308 49,95.5C 48.5006,89.8431 48.3339,84.1764 48.5,78.5 Z"/></g>
<g><path style="opacity:1" fill="#57555d" d="M 87.5,96.5 C 88.1667,97.1667 88.8333,97.8333 89.5,98.5C 90.9187,99.4511 92.5853,99.7845 94.5,99.5C 88.8333,100.833 83.1667,100.833 77.5,99.5C 80.8333,99.5 84.1667,99.5 87.5,99.5C 87.5,98.5 87.5,97.5 87.5,96.5 Z"/></g>
<g><path style="opacity:1" fill="#626061" d="M 145.5,96.5 C 146.434,97.5676 146.768,98.901 146.5,100.5C 142.629,100.815 138.962,100.482 135.5,99.5C 138.833,99.5 142.167,99.5 145.5,99.5C 145.5,98.5 145.5,97.5 145.5,96.5 Z"/></g>
<g><path style="opacity:1" fill="#8f7d5b" d="M 21.5,105.5 C 22.5862,105.62 23.2528,106.287 23.5,107.5C 23.2237,109.33 22.557,110.997 21.5,112.5C 20.2857,110.141 20.2857,107.808 21.5,105.5 Z"/></g>
<g><path style="opacity:1" fill="#b2a48f" d="M 28.5,112.5 C 26.9147,111.526 25.9147,110.026 25.5,108C 26.5,106 27.5,106 28.5,108C 27.2721,109.49 27.2721,110.99 28.5,112.5 Z"/></g>
<g><path style="opacity:1" fill="#917f58" d="M 107.5,107.5 C 112.03,108.02 112.363,109.186 108.5,111C 109.5,111.333 110.5,111.667 111.5,112C 107.077,113.081 105.744,111.581 107.5,107.5 Z"/></g>
<g><path style="opacity:1" fill="#827558" d="M 114.5,107.5 C 117.928,108.235 118.094,109.902 115,112.5C 114.506,110.866 114.34,109.199 114.5,107.5 Z"/></g>
<g><path style="opacity:1" fill="#7d684f" d="M 132.5,107.5 C 134.167,107.5 135.833,107.5 137.5,107.5C 137.5,109.833 137.5,112.167 137.5,114.5C 135.833,114.5 134.167,114.5 132.5,114.5C 132.5,112.167 132.5,109.833 132.5,107.5 Z"/></g>
<g><path style="opacity:1" fill="#958967" d="M 9.5,105.5 C 9.42265,106.75 8.75598,107.583 7.5,108C 10.285,108.726 10.9516,110.226 9.5,112.5C 5.1074,112.543 4.77406,112.043 8.5,111C 4.37803,108.214 4.71136,106.38 9.5,105.5 Z"/></g>
<g><path style="opacity:1" fill="#827358" d="M 13.5,112.5 C 11.7317,108.589 13.065,106.922 17.5,107.5C 17.5,109.167 17.5,110.833 17.5,112.5C 16.1667,112.5 14.8333,112.5 13.5,112.5 Z"/></g>
<g><path style="opacity:1" fill="#776947" d="M 66.5,110.5 C 67.5,111.167 68.5,111.833 69.5,112.5C 67.8333,112.5 66.1667,112.5 64.5,112.5C 64.5,110.167 64.5,107.833 64.5,105.5C 66.288,105.215 67.9547,105.548 69.5,106.5C 68.624,107.251 67.624,107.751 66.5,108C 67.1667,108.333 67.8333,108.667 68.5,109C 67.5842,109.278 66.9175,109.778 66.5,110.5 Z"/></g>
<g><path style="opacity:1" fill="#77694b" d="M 71.5,111.5 C 71.5,111.167 71.5,110.833 71.5,110.5C 71.5,109.5 71.5,108.5 71.5,107.5C 76.3855,106.405 78.0522,108.072 76.5,112.5C 75.1667,108.5 73.8333,108.5 72.5,112.5C 71.8933,112.376 71.56,112.043 71.5,111.5 Z"/></g>
<g><path style="opacity:1" fill="#948958" d="M 148.5,105.5 C 148.423,106.75 147.756,107.583 146.5,108C 148.037,109.11 148.703,110.61 148.5,112.5C 147.127,112.657 145.793,112.49 144.5,112C 145.167,111.667 145.833,111.333 146.5,111C 144.963,109.89 144.297,108.39 144.5,106.5C 145.568,105.566 146.901,105.232 148.5,105.5 Z"/></g>
<g><path style="opacity:1" fill="#978c70" d="M 192.5,107.5 C 191.929,108.973 191.929,110.64 192.5,112.5C 189.402,112.587 189.068,112.087 191.5,111C 188.936,109.264 189.269,108.098 192.5,107.5 Z"/></g>
<g><path style="opacity:1" fill="#000000" d="M 199.5,111.5 C 199.5,140.833 199.5,170.167 199.5,199.5C 132.833,199.5 66.1667,199.5 -0.5,199.5C -0.5,171.5 -0.5,143.5 -0.5,115.5C 0.264561,115.077 1.09789,114.743 2,114.5C 3.66297,115.99 5.32963,116.656 7,116.5C 9.09551,115.285 8.92884,114.451 6.5,114C 7.73747,113.768 8.73747,113.268 9.5,112.5C 10.8333,112.5 12.1667,112.5 13.5,112.5C 16.1394,113.246 18.8061,114.246 21.5,115.5C 23.8514,114.968 26.1848,113.968 28.5,112.5C 29.1174,112.389 29.6174,112.056 30,111.5C 31.4413,112.87 33.108,113.87 35,114.5C 36.6804,113.397 38.1804,113.73 39.5,115.5C 40.5984,114.385 41.7651,114.385 43,115.5C 44.7618,115.056 44.5951,114.556 42.5,114C 43.7375,113.768 44.7375,113.268 45.5,112.5C 45.5,112.167 45.5,111.833 45.5,111.5C 47.5184,112.623 49.5184,112.623 51.5,111.5C 52.1667,112.833 52.8333,114.167 53.5,115.5C 55.7901,113.033 57.9567,113.033 60,115.5C 60.4186,114.328 61.0853,113.328 62,112.5C 64.6047,113.814 67.1047,113.814 69.5,112.5C 68.5,111.833 67.5,111.167 66.5,110.5C 68.1667,110.5 69.8333,110.5 71.5,110.5C 71.5,110.833 71.5,111.167 71.5,111.5C 70.4265,112.251 70.2599,113.251 71,114.5C 72.7985,114.279 74.6318,113.946 76.5,113.5C 78.1965,114.364 79.3632,115.697 80,117.5C 80.985,116.186 82.1516,115.186 83.5,114.5C 83.8333,114.5 84.1667,114.5 84.5,114.5C 85.1515,115.091 85.8182,115.757 86.5,116.5C 89.8013,114.384 92.968,114.717 96,117.5C 102.701,117.03 109.201,115.696 115.5,113.5C 117.661,114.454 119.661,114.12 121.5,112.5C 122.5,112.5 123.5,112.5 124.5,112.5C 126.224,114.689 128.558,115.856 131.5,116C 130.304,116.654 130.304,117.154 131.5,117.5C 134.135,115.969 136.802,115.469 139.5,116C 140.167,114.667 140.833,113.333 141.5,112C 140.833,111.667 140.167,111.333 139.5,111C 140.928,110.421 142.262,110.588 143.5,111.5C 143.791,112.649 144.624,113.316 146,113.5C 150.922,115.431 155.755,116.764 160.5,117.5C 161.748,116.96 162.915,116.293 164,115.5C 164.333,115.833 164.667,116.167 165,116.5C 164.669,114.981 164.836,113.648 165.5,112.5C 166.617,115.279 167.783,115.612 169,113.5C 170.14,116.018 171.306,116.018 172.5,113.5C 176.045,114.977 179.712,116.31 183.5,117.5C 186.172,116.499 188.839,115.499 191.5,114.5C 191.863,113.817 192.196,113.15 192.5,112.5C 194.148,111.19 195.814,109.857 197.5,108.5C 198.176,109.602 198.842,110.602 199.5,111.5 Z"/></g>
<g><path style="opacity:1" fill="#99804c" d="M 31.5,107.5 C 33.6258,107.85 35.9592,107.85 38.5,107.5C 38.6168,109.484 37.9501,111.15 36.5,112.5C 35.8076,111.975 35.3076,111.308 35,110.5C 34.5774,111.956 33.7441,112.456 32.5,112C 31.6198,110.644 31.2865,109.144 31.5,107.5 Z"/></g>
<g><path style="opacity:1" fill="#9d8e5f" d="M 45.5,111.5 C 45.5,111.833 45.5,112.167 45.5,112.5C 43.712,112.785 42.0453,112.452 40.5,111.5C 41.09,110.201 42.09,109.368 43.5,109C 42.8333,108.667 42.1667,108.333 41.5,108C 44.4904,107.153 45.8238,108.32 45.5,111.5 Z"/></g>
<g><path style="opacity:1" fill="#978467" d="M 58.5,108.5 C 58.5,109.167 58.5,109.833 58.5,110.5C 55.4017,110.413 55.0684,110.913 57.5,112C 54.0699,112.638 52.7366,111.138 53.5,107.5C 55.2915,107.366 56.9582,107.699 58.5,108.5 Z"/></g>
<g><path style="opacity:1" fill="#796d44" d="M 87.5,105.5 C 88.7251,106.152 89.3917,107.319 89.5,109C 89.1667,110.167 88.8333,111.333 88.5,112.5C 87.5258,110.257 87.1924,107.924 87.5,105.5 Z"/></g>
<g><path style="opacity:1" fill="#766c4b" d="M 121.5,112.5 C 120.275,111.848 119.608,110.681 119.5,109C 119.833,107.833 120.167,106.667 120.5,105.5C 121.474,107.743 121.808,110.076 121.5,112.5 Z"/></g>
<g><path style="opacity:1" fill="#877f5f" d="M 124.5,112.5 C 124.5,110.833 124.5,109.167 124.5,107.5C 128.909,106.899 130.242,108.566 128.5,112.5C 127.749,111.624 127.249,110.624 127,109.5C 126.764,111.119 125.931,112.119 124.5,112.5 Z"/></g>
<g><path style="opacity:1" fill="#8d8358" d="M 158.5,107.5 C 159.675,107.281 160.675,107.614 161.5,108.5C 159.605,113.725 158.605,113.391 158.5,107.5 Z"/></g>
<g><path style="opacity:1" fill="#92855c" d="M 165.5,112.5 C 164.527,110.932 164.36,109.265 165,107.5C 166,108.833 167,108.833 168,107.5C 168.741,110.019 167.908,111.685 165.5,112.5 Z"/></g>
<g><path style="opacity:1" fill="#766e40" d="M 172.5,113.5 C 171.2,110.976 171.2,108.309 172.5,105.5C 173.729,108.199 173.729,110.865 172.5,113.5 Z"/></g>
<g><path style="opacity:1" fill="#998c6c" d="M 176.5,107.5 C 180.056,107.275 180.39,108.108 177.5,110C 177.905,110.945 178.572,111.612 179.5,112C 175.707,112.487 174.707,110.987 176.5,107.5 Z"/></g>
<g><path style="opacity:1" fill="#9a8a67" d="M 183.5,107.5 C 184.5,107.5 185.5,107.5 186.5,107.5C 186.5,108.5 186.5,109.5 186.5,110.5C 182.696,112.452 181.696,111.452 183.5,107.5 Z"/></g>
<g><path style="opacity:1" fill="#6c5d38" d="M 91.5,107.5 C 96.3855,106.405 98.0522,108.072 96.5,112.5C 95.1667,108.5 93.8333,108.5 92.5,112.5C 91.5481,110.955 91.2148,109.288 91.5,107.5 Z"/></g>
<g><path style="opacity:1" fill="#9e8c5e" d="M 100.5,107.5 C 105.03,108.02 105.363,109.186 101.5,111C 102.167,111.333 102.833,111.667 103.5,112C 102.207,112.49 100.873,112.657 99.5,112.5C 99.366,110.708 99.6993,109.042 100.5,107.5 Z"/></g>
<g><path style="opacity:1" fill="#999065" d="M 151.5,107.5 C 155.377,107.483 156.043,108.649 153.5,111C 154.167,111.333 154.833,111.667 155.5,112C 154.207,112.49 152.873,112.657 151.5,112.5C 151.5,110.833 151.5,109.167 151.5,107.5 Z"/></g>
<g><path style="opacity:1" fill="#a3956a" d="M 84.5,114.5 C 84.1667,114.5 83.8333,114.5 83.5,114.5C 79.551,114.307 79.551,113.807 83.5,113C 81.4267,112.882 80.0933,111.882 79.5,110C 80.385,107.843 82.0516,107.01 84.5,107.5C 84.5,109.833 84.5,112.167 84.5,114.5 Z"/></g>
</svg>
